<svg fill="none" xmlns="http://www.w3.org/2000/svg" viewBox="0 0 82 82">
    <path
        d="m35.117 59.617 28.787-28.788-5.717-5.716-23.07 23.07-11.638-11.637-5.716 5.717 17.354 17.354Zm5.716 22.05c-5.648 0-10.957-1.073-15.925-3.218-4.968-2.142-9.29-5.051-12.964-8.726-3.675-3.675-6.584-7.997-8.726-12.965C1.073 51.79 0 46.482 0 40.833c0-5.648 1.073-10.957 3.218-15.925 2.142-4.968 5.05-9.29 8.726-12.964 3.675-3.675 7.996-6.585 12.964-8.73C29.876 1.07 35.185 0 40.833 0c5.649 0 10.957 1.071 15.925 3.214 4.968 2.145 9.29 5.055 12.965 8.73 3.675 3.675 6.584 7.996 8.726 12.964 2.145 4.968 3.218 10.277 3.218 15.925 0 5.649-1.073 10.957-3.218 15.925-2.142 4.968-5.051 9.29-8.726 12.965-3.675 3.675-7.997 6.584-12.965 8.726-4.968 2.145-10.276 3.218-15.925 3.218Z"
        fill="#85BF7C" />
</svg>