<svg fill="none" xmlns="http://www.w3.org/2000/svg" viewBox="0 0 22 22"><path d="M21.44 5.882a.662.662 0 0 0-.45-.253L4.657 3.813 4.312.62a.703.703 0 0 0-.054-.212.666.666 0 0 0-.61-.407H.923a.677.677 0 0 0-.667.687c0 .38.298.688.667.688h2.13l.012.114 1.67 15.5c-1.014.323-1.752 1.298-1.752 2.448C2.982 20.85 4.096 22 5.467 22c1.37 0 2.484-1.15 2.484-2.563a2.61 2.61 0 0 0-.283-1.187h8.324a2.61 2.61 0 0 0-.283 1.188c0 1.413 1.114 2.562 2.485 2.562 1.37 0 2.485-1.15 2.485-2.563 0-1.413-1.115-2.562-2.485-2.562H6.063L5.806 14.5h14.304c.34 0 .625-.264.663-.612l.808-7.5a.702.702 0 0 0-.143-.506ZM18.193 18.25c.635 0 1.151.533 1.151 1.187 0 .655-.516 1.188-1.151 1.188s-1.152-.533-1.152-1.188c0-.654.517-1.187 1.152-1.187ZM7.899 5.556l.217 3.07-2.961-.184-.348-3.23 3.092.344Zm-1.28 13.881c0 .655-.517 1.188-1.152 1.188-.635 0-1.152-.533-1.152-1.188 0-.654.517-1.187 1.152-1.187.635 0 1.151.533 1.151 1.188Zm-.96-6.312-.355-3.296 2.91.181.22 3.115H5.66Zm6.462 0H9.77l-.214-3.031 2.564.16v2.87Zm0-4.25L9.459 8.71l-.213-3.004 2.875.32v2.85Zm3.667 4.25h-2.334v-2.789l2.456.153-.122 2.636Zm.185-4.01-2.519-.156V6.174l2.641.293-.122 2.649Zm3.542 4.01h-2.392l.118-2.553 2.532.158-.258 2.395Zm.405-3.763-2.616-.163.12-2.584 2.76.307-.264 2.44Z" fill="#fff"/></svg>