<svg width="107" height="41" fill="none" xmlns="http://www.w3.org/2000/svg"><path d="M57.995 6.774a6.705 6.705 0 0 0-2.366-1.066 12.43 12.43 0 0 0-2.711-.329c-.852-.01-1.703.05-2.545.18-.818.122-1.628.286-2.428.494-.626.164-1.241.362-1.845.593l-.067 4.634-.137 9.07 4.732.07.14-9.125.028-1.972.244-.064c.485-.12.984-.175 1.484-.164a4.32 4.32 0 0 1 1.569.289c.452.184.824.522 1.048.955.244.45.36 1.095.35 1.936l-.119 8.203 4.732.07.122-8.367c.019-1.341-.172-2.452-.572-3.333a5.035 5.035 0 0 0-1.66-2.074ZM74.552 17.242c-.749.157-1.513.227-2.277.21a7.687 7.687 0 0 1-2.387-.37 2.877 2.877 0 0 1-2.07-2.483l9.66.139.042-.961A9.68 9.68 0 0 0 77 9.639a5.919 5.919 0 0 0-2.257-2.903c-1.046-.71-2.403-1.079-4.072-1.104-1.538-.022-2.878.263-4.02.855a6.241 6.241 0 0 0-2.647 2.6c-.626 1.143-.951 2.52-.974 4.13-.02 1.374.174 2.557.58 3.547.37.94.98 1.766 1.769 2.398a7.767 7.767 0 0 0 2.802 1.369c1.18.31 2.393.47 3.613.476a16.28 16.28 0 0 0 2.65-.15 9.455 9.455 0 0 0 1.93-.482l.055-3.673h-.27a6.147 6.147 0 0 1-1.608.54ZM68.14 10.49a2.43 2.43 0 0 1 .959-1.233 2.67 2.67 0 0 1 1.449-.358c.86.012 1.483.268 1.885.764.403.497.589 1.193.576 2.087v.133l-5.171-.078c.044-.45.145-.891.302-1.315ZM78.714 20.514v.294l5.057.075 2.882-4.025 2.817 4.108 5.245.076v-.296l-5.487-7.211 2.956-3.538 5.648.08-.087 5.568c-.021 1.413.236 2.54.771 3.377a4.433 4.433 0 0 0 2.26 1.808c1.099.385 2.257.578 3.422.572.503.012 1.007-.012 1.506-.073a7.653 7.653 0 0 0 1.242-.262l.054-3.701h-.297c-.264.094-.534.17-.809.228-.31.068-.626.1-.943.094-.862-.012-1.483-.196-1.889-.55-.405-.352-.591-.942-.58-1.764l.076-5.23 3.873.057.06-3.655-3.874-.056.053-3.673-4.732-.067-.053 3.673-2.942-.042-4.5-.064-.556-.008-2.929 4.094-2.846-4.178-5.243-.075v.294l5.515 7.28-5.67 6.79ZM51.538 30.598a4.492 4.492 0 0 0-1.135-.345l-.612-.105a4.39 4.39 0 0 1-.79-.2.369.369 0 0 1-.271-.356.46.46 0 0 1 .344-.456c.31-.096.633-.139.956-.127.331.002.662.03.989.087.364.062.72.162 1.063.297h.106v-1.84a6.894 6.894 0 0 0-1.003-.212 8.291 8.291 0 0 0-1.094-.066 5.742 5.742 0 0 0-2.065.306c-.47.16-.878.46-1.169.861-.25.366-.38.8-.374 1.242 0 .636.197 1.108.592 1.417a3.614 3.614 0 0 0 1.6.657l.597.105c.292.041.58.113.857.212a.398.398 0 0 1 .245.398.47.47 0 0 1-.352.493c-.128.039-.26.063-.392.072-.15.015-.314.022-.495.022a5.955 5.955 0 0 1-1.353-.165 7.516 7.516 0 0 1-1.154-.358h-.107v1.867c.392.115.791.203 1.195.265.426.07.857.105 1.289.107 1.222 0 2.135-.197 2.74-.59.606-.394.91-.996.91-1.808a1.863 1.863 0 0 0-.304-1.106 2.04 2.04 0 0 0-.813-.674ZM59.34 27.638a4.744 4.744 0 0 0-3.886 0 3.067 3.067 0 0 0-1.318 1.26c-.319.56-.478 1.268-.478 2.124 0 .856.157 1.56.473 2.112.297.545.758.985 1.318 1.257a4.742 4.742 0 0 0 3.892 0 3.038 3.038 0 0 0 1.327-1.257c.32-.56.479-1.264.478-2.112-.001-.848-.161-1.557-.48-2.127a3.052 3.052 0 0 0-1.327-1.257Zm-.91 4.947a1.263 1.263 0 0 1-1.609.389 1.264 1.264 0 0 1-.45-.39c-.227-.352-.34-.873-.338-1.562.001-.69.114-1.214.338-1.576a1.264 1.264 0 0 1 2.058 0c.227.353.337.878.33 1.576-.006.698-.116 1.219-.33 1.563ZM81.756 32.36l-1.483-4.939h-1.648l-1.472 4.93-1.131-4.93h-5.145V25.61h-2.335v1.807h-3.325c.02-.424.12-.737.31-.926.19-.19.53-.32.956-.32.15 0 .299.015.445.047.113.027.224.065.33.113h.158v-1.707c-.159-.06-.325-.101-.494-.12a5.011 5.011 0 0 0-.66-.04 4.617 4.617 0 0 0-1.785.317c-.49.196-.905.544-1.182.993a3.256 3.256 0 0 0-.413 1.643h-1.2v1.808h1.195v5.441h2.337v-5.44h3.333v2.753c0 .697.135 1.251.405 1.662a2.19 2.19 0 0 0 1.128.874 5.08 5.08 0 0 0 1.694.258c.249.002.497-.014.743-.046.208-.03.412-.076.612-.14v-1.83h-.147c-.13.048-.263.088-.398.12a2.06 2.06 0 0 1-.465.052c-.426 0-.738-.086-.937-.258-.198-.172-.3-.46-.305-.867v-2.579h3.132l1.59 5.441h2.577l1.215-4.023 1.215 4.023h2.634l2.167-7.084v-.165h-2.484l-1.167 4.944ZM92.604 32.703c0-.273-.013-.503-.013-.688v-1.603a4.013 4.013 0 0 0-.266-1.582 2.242 2.242 0 0 0-.763-.966 3.173 3.173 0 0 0-1.175-.493 7.092 7.092 0 0 0-1.484-.145 8.776 8.776 0 0 0-2.324.304v1.775h.132c.265-.113.541-.196.824-.247.357-.067.719-.1 1.082-.098.319-.007.638.026.95.098a.916.916 0 0 1 .564.391c.14.256.204.545.187.835v.07c-.124-.024-.243-.052-.373-.07a5.752 5.752 0 0 0-.824-.054 5.352 5.352 0 0 0-1.632.232c-.437.13-.826.385-1.117.734a2.023 2.023 0 0 0-.406 1.315c0 .848.297 1.446.89 1.794.594.349 1.473.523 2.638.523.377 0 .754-.024 1.129-.072.361-.047.72-.114 1.074-.199a9.1 9.1 0 0 0 .99-.297l.052-.107a3.246 3.246 0 0 1-.094-.636c-.01-.271-.031-.54-.041-.814Zm-3.2.597a2.036 2.036 0 0 1-.962-.186.678.678 0 0 1-.34-.649.707.707 0 0 1 .34-.657 2.128 2.128 0 0 1 1.042-.2c.213.002.427.02.638.053l.206.028v.658c.001.155.012.31.032.463.016.108.04.215.07.32-.075.03-.151.056-.23.076-.26.06-.527.092-.796.094ZM97.65 27.262a10.806 10.806 0 0 0-2.37.252 7.674 7.674 0 0 0-.87.238l-.04.105c.043.212.072.427.086.643.022.269.037.542.04.821.003.28 0 .505 0 .68v4.661h2.337v-4.501a4.57 4.57 0 0 0-.086-.986c.063-.017.122-.033.193-.046a4.356 4.356 0 0 1 1.822.046h.145v-1.82a5.424 5.424 0 0 0-.724-.08c-.22-.01-.4-.013-.532-.013ZM106.581 29.155a2.924 2.924 0 0 0-1.135-1.416c-.524-.345-1.197-.517-2.02-.516a4.111 4.111 0 0 0-1.978.45 3.072 3.072 0 0 0-1.287 1.303 4.316 4.316 0 0 0-.451 2.046c-.016.597.09 1.192.311 1.747.189.461.496.865.89 1.172.415.311.89.535 1.395.657a7.089 7.089 0 0 0 1.785.214c.438.004.875-.026 1.308-.092.325-.051.643-.135.95-.252V32.66h-.134a3.006 3.006 0 0 1-.789.278 4.984 4.984 0 0 1-1.123.12c-.4.008-.799-.047-1.182-.164a1.387 1.387 0 0 1-1.025-1.211h4.757l.013-.477a4.777 4.777 0 0 0-.285-2.05Zm-1.96 1.14h-2.543c.017-.225.062-.446.134-.658.082-.251.246-.468.464-.617.215-.127.461-.19.711-.184.425 0 .738.12.936.364.216.297.321.66.298 1.025v.07ZM24.462 31.142c3.715 0 7.021-3.071 7.021-6.955a6.98 6.98 0 0 0-1.042-3.659 7.006 7.006 0 0 0-2.808-2.574l-2.763-1.446a2.305 2.305 0 0 1-1.269-2.074 2.325 2.325 0 0 1 1.452-2.174c.286-.117.594-.176.903-.174h2.396a1.794 1.794 0 0 0 1.702-1.089 1.781 1.781 0 0 0-1.001-2.36 1.795 1.795 0 0 0-.701-.12h-2.396a5.873 5.873 0 0 0-4.202 1.696 5.839 5.839 0 0 0-1.731 4.177 6.022 6.022 0 0 0 .868 3.108 6.046 6.046 0 0 0 2.35 2.218l2.765 1.4a3.295 3.295 0 0 1 1.851 3.026c0 1.851-1.483 3.439-3.35 3.439a3.41 3.41 0 0 1-3.131-1.942l-4.12-8.627a4.435 4.435 0 0 0-1.958-2.025 4.453 4.453 0 0 0-5.277.877 4.424 4.424 0 0 0-1.192 2.549l-1.404 8.581a1.745 1.745 0 0 0 .803 1.79c.197.123.417.205.647.241a1.804 1.804 0 0 0 2.087-1.444l1.45-8.762a.853.853 0 0 1 .71-.759.859.859 0 0 1 .92.482l4.079 8.628a7.074 7.074 0 0 0 2.6 2.89 7.104 7.104 0 0 0 3.74 1.082Z" fill="#fff"/><path d="M20.166 1.892c3.673 0 7.264 1.085 10.318 3.12a18.528 18.528 0 0 1 6.841 8.31 18.463 18.463 0 0 1 1.057 10.698A18.498 18.498 0 0 1 33.3 33.5a18.589 18.589 0 0 1-9.51 5.068 18.623 18.623 0 0 1-10.73-1.054 18.56 18.56 0 0 1-8.334-6.82 18.476 18.476 0 0 1 2.31-23.38 18.598 18.598 0 0 1 13.13-5.422m0-1.59A20.209 20.209 0 0 0 8.962 3.688a20.118 20.118 0 0 0-7.427 9.023A20.05 20.05 0 0 0 .388 24.328a20.087 20.087 0 0 0 5.519 10.295 20.168 20.168 0 0 0 6.545 4.469A20.218 20.218 0 0 0 34.61 34.81a20.1 20.1 0 0 0 4.396-6.583 20.052 20.052 0 0 0-.102-15.51 20.102 20.102 0 0 0-4.483-6.524 20.04 20.04 0 0 0-6.536-4.37 20.09 20.09 0 0 0-7.72-1.522Z" fill="#fff"/></svg>